<?xml version="1.0" encoding="UTF-8"?>
<svg id="_レイヤー_1" data-name="レイヤー 1" xmlns="http://www.w3.org/2000/svg" viewBox="0 0 106.395 80">
  <defs>
    <style>
      .cls-1 {
        fill: none;
      }

      .cls-2 {
        fill: #e2750f;
      }
    </style>
  </defs>
  <g>
    <g>
      <path class="cls-2" d="M62.849,35.153c-.5.815-1.375,1.323-2.331,1.351-.962.034-1.859-.426-2.408-1.208l-3.153-4.504-2.437,7.123c-.337.983-1.182,1.703-2.206,1.876-1.025.175-2.06-.225-2.703-1.04l-2.143-2.722-1.56,5.005c-.378,1.213-1.499,1.993-2.706,1.993-.279,0-.563-.042-.843-.13-1.495-.465-2.329-2.055-1.864-3.548l3.16-10.15c.313-1.006,1.158-1.754,2.193-1.946,1.034-.19,2.091.208,2.742,1.035l2.254,2.863,2.557-7.471c.346-1.01,1.23-1.739,2.285-1.889,1.057-.147,2.106.308,2.719,1.182l3.872,5.53,5.219-8.51c-3.395-4.097-8.52-6.707-14.256-6.707-10.22,0-18.505,8.285-18.505,18.504s8.285,18.506,18.505,18.506,18.503-8.285,18.503-18.506c0-2.16-.374-4.233-1.053-6.16l-5.841,9.521Z"/>
      <path class="cls-2" d="M74.551,16.612c0,2.03-1.646,3.677-3.676,3.677s-3.679-1.647-3.679-3.677,1.646-3.678,3.679-3.678,3.676,1.646,3.676,3.678Z"/>
    </g>
    <g>
      <polygon points="19.775 55.216 17.739 60.901 15.612 55.216 14.422 55.216 12.969 64.068 14.662 64.068 15.429 58.717 15.451 58.717 17.34 64.183 17.923 64.183 19.879 58.717 19.901 58.717 20.587 64.068 22.28 64.068 20.989 55.216 19.775 55.216"/>
      <path d="M25.841,58.27c-1.75,0-2.951,1.247-2.951,2.997,0,1.739,1.189,2.985,2.951,2.985s2.95-1.246,2.95-2.985c0-1.749-1.201-2.997-2.95-2.997ZM25.841,62.834c-.824,0-1.327-.813-1.327-1.567,0-.778.503-1.578,1.327-1.578s1.327.801,1.327,1.578c0,.755-.504,1.567-1.327,1.567Z"/>
      <path d="M32.912,58.27c-.572,0-1.133.195-1.464.698h-.023v-.515h-1.601v5.615h1.601v-2.778c0-.675.012-1.739.961-1.739.904,0,.87.869.87,1.544v2.973h1.601v-3.431c0-1.303-.434-2.367-1.944-2.367Z"/>
      <path d="M38.602,58.27c-1.819,0-2.722,1.338-2.722,3.042s1.063,2.94,2.802,2.94c1.179,0,2.163-.629,2.551-1.75l-1.476-.24c-.217.446-.549.766-1.075.766-.835,0-1.109-.801-1.109-1.51h3.694v-.194c0-1.693-.824-3.054-2.664-3.054ZM37.618,60.523c.079-.583.434-1.132,1.075-1.132.618,0,.984.559,1.064,1.132h-2.139Z"/>
      <polygon points="44.674 61.645 43.335 58.453 41.516 58.453 43.907 63.213 42.054 67.065 43.815 67.065 47.9 58.453 46.114 58.453 44.674 61.645"/>
      <path class="cls-2" d="M58.866,58.27c-1.75,0-2.952,1.247-2.952,2.997,0,1.739,1.189,2.985,2.952,2.985s2.951-1.246,2.951-2.985c0-1.749-1.202-2.997-2.951-2.997ZM58.866,62.834c-.824,0-1.327-.813-1.327-1.567,0-.778.504-1.578,1.327-1.578s1.327.801,1.327,1.578c0,.755-.503,1.567-1.327,1.567Z"/>
      <path class="cls-2" d="M64.357,59.036h-.023v-.584h-1.602v5.615h1.602v-2.526c0-.869.114-1.853,1.224-1.853.239,0,.469.068.664.206l.194-1.487c-.206-.08-.435-.137-.664-.137-.595,0-1.075.275-1.395.766Z"/>
      <path class="cls-2" d="M80.833,58.98c-.389-.458-.984-.709-1.568-.709-1.612,0-2.562,1.475-2.562,2.962,0,1.52.938,3.019,2.585,3.019.582,0,1.179-.251,1.522-.698h.023v.514h1.578v-5.615h-1.578v.527ZM79.655,62.834c-.824,0-1.327-.825-1.327-1.578s.503-1.567,1.327-1.567,1.338.811,1.338,1.567-.514,1.578-1.338,1.578Z"/>
      <path class="cls-2" d="M85.361,59.036h-.023v-.584h-1.602v5.615h1.602v-2.526c0-.869.115-1.853,1.224-1.853.24,0,.469.068.663.206l.195-1.487c-.206-.08-.435-.137-.664-.137-.594,0-1.074.275-1.395.766Z"/>
      <path class="cls-2" d="M91.818,55.445v3.523h-.023c-.354-.446-.949-.698-1.532-.698-1.613,0-2.563,1.475-2.563,2.962,0,1.52.938,3.019,2.586,3.019.583,0,1.177-.251,1.509-.709h.023v.526h1.602v-8.623h-1.602ZM90.651,62.834c-.823,0-1.327-.825-1.327-1.578s.504-1.567,1.327-1.567,1.327.811,1.327,1.567-.504,1.578-1.327,1.578Z"/>
      <polygon class="cls-2" points="51.23 64.068 52.912 64.068 52.912 60.272 55.348 60.272 55.348 58.807 52.912 58.807 52.912 56.909 55.507 56.909 55.507 55.445 51.23 55.445 51.23 64.068"/>
      <path class="cls-2" d="M79.008,57.054c-.005,0,.13-1.574.13-1.574-.327.001-.654.043-.971.122-1.341.334-2.389,1.289-3.11,2.436-.53.843-.922,1.767-1.336,2.67-.053.117-.107.233-.16.35-.035.077-.085.175-.14.28l-1.271-3.066h-.889l-1.299,3.149-1.24-2.966h-1.75l2.584,5.73h.824l1.338-3.419,1.203,3.419c.251,0,.811,0,.811,0,0,0,.014-.033.021-.048.231-.48,1.577-3.49,2.112-4.535.232-.454.552-.992.877-1.38.59-.705,1.405-1.191,2.267-1.166Z"/>
    </g>
  </g>
  <rect class="cls-1" width="106.395" height="80"/>
</svg>